<svg width="1440" height="1024" viewBox="0 0 1440 1024" fill="none" xmlns="http://www.w3.org/2000/svg">
<g clip-path="url(#clip0_253:207)">
<path d="M1080.01 1.48866C932.696 128.763 839.295 316.78 838.813 526.719C838.366 722.024 918.42 898.722 1047.71 1025.42L1439 1026.31L1441.34 2.31694L1080.01 1.48866Z" fill="#8CE2D0"/>
<path d="M917.196 1025.12C837.172 729.835 567.593 512.315 246.835 511.58C160.045 511.277 73.9682 527.245 -6.9356 558.657L-8 1023L917.196 1025.12Z" fill="#C2F587"/>
<path d="M290.948 1023.68L809.82 0.869294L-5.65271 -1L-8 1023L290.948 1023.68Z" fill="#F66F92" fill-opacity="0.8"/>
<path d="M1439.49 810.303L1440.52 361.5L1221.43 636.898L1439.49 810.303Z" fill="#DF62F5"/>
</g>
<defs>
<clipPath id="clip0_253:207">
<rect width="1024" height="1447" fill="white" transform="translate(-8 1023) rotate(-89.8687)"/>
</clipPath>
</defs>
</svg>
