<?xml version="1.0" encoding="utf-8"?>
<!-- Generator: Adobe Illustrator 24.0.2, SVG Export Plug-In . SVG Version: 6.00 Build 0)  -->
<svg version="1.1" id="Capa_1" xmlns="http://www.w3.org/2000/svg" xmlns:xlink="http://www.w3.org/1999/xlink" x="0px" y="0px"
	 viewBox="0 0 1440 1024" style="enable-background:new 0 0 1440 1024;" xml:space="preserve">
<style type="text/css">
	.st0{fill:#FFFFFF;}
	.st1{clip-path:url(#SVGID_2_);}
	.st2{fill:#8CE2D0;}
	.st3{fill:#C2F587;}
	.st4{fill:#F66F92;fill-opacity:0.8;}
	.st5{fill:#DF62F5;}
</style>
<rect y="-1" class="st0" width="1441.3" height="1027.3"/>
<g>
	<defs>
		
			<rect id="SVGID_1_" x="204.7" y="-210.8" transform="matrix(2.291648e-03 -1 1 2.291648e-03 202.3711 1228.1541)" width="1024" height="1447"/>
	</defs>
	<clipPath id="SVGID_2_">
		<use xlink:href="#SVGID_1_"  style="overflow:visible;"/>
	</clipPath>
	<g class="st1">
		<path class="st2" d="M1080,1.5C932.7,128.8,839.3,316.8,838.8,526.7c-0.4,195.3,79.6,372,208.9,498.7l391.3,0.9l2.3-1024L1080,1.5
			z"/>
		<path class="st3" d="M917.2,1025.1c-80-295.3-349.6-512.8-670.4-513.5C160,511.3,74,527.2-6.9,558.7L-8,1023L917.2,1025.1z"/>
		<path class="st4" d="M290.9,1023.7L809.8,0.9L-5.7-1L-8,1023L290.9,1023.7z"/>
		<path class="st5" d="M1439.5,810.3l1-448.8l-219.1,275.4L1439.5,810.3z"/>
	</g>
</g>
</svg>
