<svg width="121" height="120" viewBox="0 0 121 120" fill="none" xmlns="http://www.w3.org/2000/svg">
<g clip-path="url(#clip0_252:124)">
<path d="M120.945 89.9995C120.945 92.6302 120.205 95.069 119.02 97.2147L81.1307 54.8224L118.609 22.0324C120.067 24.346 120.945 27.0637 120.945 30.0006V89.9995ZM60.9451 62.5196L113.095 16.8899C110.955 15.7184 108.545 15 105.945 15H15.9449C13.3421 15 10.9315 15.7184 8.80017 16.8899L60.9451 62.5196ZM75.484 59.759L63.4128 70.3278C62.7067 70.9429 61.8275 71.25 60.9451 71.25C60.0622 71.25 59.183 70.9429 58.4769 70.3278L46.4029 59.7586L8.03473 102.693C10.3345 104.136 13.0298 105 15.9446 105H105.945C108.86 105 111.556 104.136 113.855 102.693L75.484 59.759ZM3.28158 22.0321C1.8239 24.3457 0.944946 27.0635 0.944946 30.0006V89.9998C0.944946 92.6304 1.68145 95.0692 2.87128 97.2149L40.7558 54.8152L3.28158 22.0321Z" fill="white"/>
</g>
<defs>
<clipPath id="clip0_252:124">
<rect width="120" height="120" fill="white" transform="translate(0.944946)"/>
</clipPath>
</defs>
</svg>
