<svg width="508" height="187" viewBox="0 0 508 187" fill="none" xmlns="http://www.w3.org/2000/svg">
<path d="M0.935837 184.603V2.39749L154.372 184.603H0.935837Z" fill="white"/>
<path d="M0.935837 0H106.564C136.94 0 161.564 24.6243 161.564 55V86.4487C161.564 116.824 136.94 141.449 106.564 141.449H0.935837V0Z" fill="white" fill-opacity="0.7"/>
<path d="M239.663 187L152.749 7.19229L292.605 97.0962L239.663 187Z" fill="white"/>
<path d="M239.861 187V7.19229H345.348L239.861 187Z" fill="white" fill-opacity="0.7"/>
<path d="M480.678 157.988L350.011 27.7171C334.964 38.0121 297.744 105.721 350.011 157.988C398.713 206.689 458.503 181.349 480.678 157.988Z" fill="white"/>
<path d="M350.542 158.439L480.78 27.7401C470.481 12.6954 402.763 -24.5078 350.509 27.7727C301.82 76.4871 327.175 136.271 350.542 158.439Z" fill="white" fill-opacity="0.8"/>
</svg>
