<svg width="98" height="98" viewBox="0 0 98 98" fill="none" xmlns="http://www.w3.org/2000/svg">
<g clip-path="url(#clip0_252:131)">
<path d="M97.2195 78.0501L96.7352 76.5908C95.588 73.1813 91.8282 69.6254 88.374 68.6885L75.5901 65.1962C72.1233 64.2531 67.178 65.5213 64.6415 68.0576L60.0147 72.6843C43.2001 68.1408 30.0148 54.9551 25.4774 38.1437L30.1043 33.5167C32.6408 30.9803 33.9088 26.0415 32.9657 22.5747L29.4797 9.78441C28.5365 6.32392 24.9741 2.56407 21.5711 1.42961L20.1118 0.938953C16.7023 -0.195509 11.8398 0.9518 9.30348 3.48808L2.38251 10.4154C1.14609 11.6453 0.355857 15.1631 0.355857 15.1759C0.113792 37.1494 8.72983 58.3197 24.273 73.863C39.7779 89.368 60.869 97.9714 82.7786 97.7867C82.8932 97.7867 86.513 97.0091 87.7494 95.779L94.6704 88.858C97.2066 86.3219 98.3537 81.4596 97.2195 78.0501Z" fill="black"/>
</g>
<defs>
<clipPath id="clip0_252:131">
<rect width="97.3064" height="97.3064" fill="black" transform="translate(0.351074 0.487091)"/>
</clipPath>
</defs>
</svg>
