<svg width="104" height="105" viewBox="0 0 104 105" fill="none" xmlns="http://www.w3.org/2000/svg">
<path d="M51.9097 0.487091H51.8838C23.2692 0.487091 0 23.7628 0 52.3838C0 63.7362 3.65872 74.2583 9.87984 82.8018L3.41221 102.081L23.36 95.7046C31.5662 101.141 41.3552 104.281 51.9097 104.281C80.5243 104.281 103.793 80.9984 103.793 52.3838C103.793 23.7693 80.5243 0.487091 51.9097 0.487091ZM82.1071 73.7718C80.8551 77.3072 75.886 80.2394 71.9224 81.0957C69.2108 81.673 65.6688 82.1336 53.7455 77.1905C38.4944 70.872 28.6729 55.3744 27.9075 54.3689C27.1744 53.3634 21.7447 46.1627 21.7447 38.7155C21.7447 31.2683 25.5267 27.6421 27.0512 26.0852C28.3032 24.8072 30.3726 24.2234 32.3576 24.2234C32.9998 24.2234 33.5772 24.2558 34.0962 24.2817C35.6206 24.3466 36.3861 24.4374 37.3916 26.8441C38.6436 29.8606 41.6925 37.3078 42.0558 38.0733C42.4256 38.8388 42.7953 39.8767 42.2764 40.8822C41.7898 41.9201 41.3617 42.3807 40.5962 43.263C39.8307 44.1452 39.1042 44.8199 38.3387 45.767C37.6381 46.5908 36.8467 47.4731 37.7289 48.9976C38.6112 50.4896 41.6601 55.4652 46.1492 59.4612C51.9421 64.6185 56.6388 66.2662 58.3189 66.9668C59.571 67.4858 61.063 67.3625 61.9777 66.3895C63.1389 65.1374 64.5725 63.0616 66.0321 61.0181C67.07 59.5521 68.3804 59.3704 69.7557 59.8894C71.1569 60.3759 78.5716 64.0411 80.0961 64.8001C81.6206 65.5656 82.6261 65.9289 82.9958 66.5711C83.3591 67.2133 83.3591 70.2298 82.1071 73.7718Z" fill="white"/>
</svg>
